# ProBuilder 5.1.1
# https://unity3d.com/unity/features/worldbuilding/probuilder
# 10/15/2023 4:05:49 PM

mtllib ./Cube.mtl
o Cube

g Cube
v 6.478255 -9.421247 12.96948
v 4.96612 -9.421247 12.96948
v 6.478255 -0.8131084 12.96948
v 4.96612 -0.8131084 12.96948
v 4.96612 -9.421247 10.47152
v 4.96612 -9.421247 -11.75475
v 4.96612 -0.8131084 10.47152
v 4.96612 -0.8131085 -11.66866
v 4.96612 -9.421247 -14.34938
v 6.478255 -9.421247 -14.34938
v 4.96612 -0.8131084 -14.34938
v 6.478255 -0.8131084 -14.34938
v 6.478255 -9.421247 -11.75475
v 6.478255 -9.421247 10.47152
v 6.478255 -0.8131084 -11.75475
v 6.478255 -0.8131084 10.47152
v 6.478255 1.837026 10.47152
v 4.96612 1.837026 10.47152
v 6.478255 1.837026 -11.75475
v 4.96612 1.837026 -11.67942
v -17.70716 -9.421247 10.47152
v -17.70716 -0.8131084 10.47152
v -17.70716 -9.421247 12.96948
v -17.70716 -0.8131084 12.96948
v 4.96612 1.837026 12.96948
v 6.478255 1.837026 12.96948
v -17.70716 -0.8131084 -11.55576
v -17.70716 -9.421247 -11.55576
v -17.70716 -0.8131084 -14.34938
v -17.70716 -9.421247 -14.34938
v 6.478255 1.837026 -14.34938
v 4.96612 1.837026 -14.34938
v -16.19119 -0.8131084 -11.55513
v -16.28559 -9.421247 -11.55576
v -16.28559 1.837026 -14.34938
v -16.13465 1.837026 -11.55505
v -16.28559 -9.421247 -14.34938
v -16.28559 -0.8131084 -14.34938
v -16.28559 -9.421247 10.47152
v -16.28559 -0.8131084 10.47152
v -16.28559 -9.421247 12.96948
v -16.28559 1.837026 10.47152
v -16.28559 1.837026 12.96948
v -16.28559 -0.8131084 12.96948
v -17.70716 1.837026 -14.34938
v -17.70716 1.837026 -11.55576
v -17.70716 1.837026 10.47152
v -17.70716 1.837026 12.96948

vt 6.478255 -9.421247
vt 4.96612 -9.421247
vt 6.478255 -0.8131084
vt 4.96612 -0.8131084
vt 10.47152 -9.421247
vt -11.75475 -9.421247
vt 10.47152 -0.8131084
vt -11.66866 -0.8131085
vt -4.96612 -9.421247
vt -6.478255 -9.421247
vt -4.96612 -0.8131084
vt -6.478255 -0.8131084
vt 11.75475 -9.421247
vt -10.47152 -9.421247
vt 11.75475 -0.8131084
vt -10.47152 -0.8131084
vt -6.478255 10.47152
vt -4.96612 10.47152
vt -6.478255 -11.75475
vt -4.96612 -11.67942
vt 6.478255 -11.75475
vt 4.96612 -11.75475
vt 6.478255 10.47152
vt 4.96612 10.47152
vt 6.478255 12.96948
vt 4.96612 12.96948
vt -12.96948 -0.8131084
vt -12.96948 -9.421247
vt 12.96948 -9.421247
vt 12.96948 -0.8131084
vt -4.96612 12.96948
vt -6.478255 12.96948
vt 4.96612 -14.34938
vt 6.478255 -14.34938
vt -11.55576 -0.8131084
vt -11.55576 -9.421247
vt -14.34938 -0.8131084
vt -14.34938 -9.421247
vt 14.34938 -9.421247
vt 14.34938 -0.8131084
vt -6.478255 -14.34938
vt -4.96612 -14.34938
vt 5.028663 -0.929497
vt 5.029125 -9.538067
vt -16.12895 -0.9294969
vt -16.22334 -9.537217
vt 16.28559 -14.34938
vt 16.13465 -11.55505
vt -16.28559 -11.55576
vt -16.28559 -14.34938
vt 16.28559 -9.421247
vt 16.28559 -0.8131084
vt -16.28559 12.96948
vt -16.28559 10.47152
vt 16.28559 10.47152
vt 16.28559 12.96948
vt -16.28559 -0.8131084
vt -16.28559 -9.421247
vt -16.19599 -0.8139015
vt -16.29039 -9.422041
vt -17.71196 -0.8139015
vt -17.71196 -9.422041
vt 17.70716 -14.34938
vt 17.70716 -11.55576
vt -17.70716 -11.55576
vt -17.70716 -14.34938
vt 17.70716 -9.421247
vt 17.70716 -0.8131084
vt 16.28559 -9.422093
vt 16.19119 -0.8139547
vt 17.70716 -9.422093
vt 17.70716 -0.8139547
vt -17.70716 12.96948
vt -17.70716 10.47152
vt 17.70716 10.47152
vt 17.70716 12.96948
vt -17.70716 -0.8131084
vt -17.70716 -9.421247
vt 11.55576 -9.421247
vt 11.55513 -0.8131084
vt -4.96612 1.837026
vt -6.478255 1.837026
vt 16.28559 1.837026
vt 5.028663 -0.7658336
vt -16.12895 -0.7658336
vt 5.02872 1.884322
vt -16.07241 1.884277
vt 17.70716 1.837026
vt -10.47152 1.837026
vt -12.96948 1.837026
vt 14.34938 1.837026
vt 11.75475 1.837026
vt 16.12895 -0.8147891
vt -5.028663 -0.8147891
vt 16.07241 1.835345
vt -5.02872 1.835343
vt 10.47152 1.837026
vt -11.67942 1.837026
vt 6.478255 1.837026
vt 4.96612 1.837026
vt -16.28559 1.837026
vt 11.48563 -1.159353
vt -10.54122 -1.159353
vt 11.48579 1.491385
vt -10.54122 1.490178
vt -17.70716 1.837026
vt 12.96948 1.837026
vt -11.55576 1.837026
vt -14.34938 1.837026
vt -16.19119 -11.55513
vt 4.96612 -11.66866
vt 10.58287 1.837026
vt 10.58287 -0.8131084
vt -11.44421 1.837026
vt -11.4439 -0.8131084
vt 11.66866 -0.8131085
vt 11.67942 1.837026

vn 0 0 1
vn -1 0 0
vn 0 0 -1
vn 1 0 0
vn 0 1 0
vn 0 -1 0
vn 0.005365791 -0.01000092 0.9999356
vn 0.007364607 -0.005088415 0.9999459
vn 0.009363424 -0.0001759105 0.9999561
vn -0.0004158263 -6.867042E-05 0.9999999
vn 0.0004158263 0 -0.9999999
vn 0.9999654 -0.005482983 0.00214272
vn 0.9999307 -0.01096597 0.00428544
vn 0.005366015 0.004060197 0.9999774
vn 0.005630065 0.001952286 0.99998
vn 0.005894114 -0.0001556248 0.9999826
vn -0.005366059 0.0001443583 -0.9999856
vn -0.005630063 -0.001957913 -0.99998
vn -0.005894066 -0.004060185 -0.9999744
vn 0.9997633 -0.02133111 0.004284723
vn 0.9998699 -0.01066556 0.005568684
vn 0.9999765 0 0.006852644
vn -0.9999765 0 -0.006852644
vn -0.9998699 0.01066556 -0.005568684
vn -0.9997633 0.02133111 -0.004284723

usemtl wireframe
f 3/3/1 4/4/1 2/2/1 1/1/1
f 7/7/2 8/8/2 6/6/2 5/5/2
f 11/11/3 12/12/3 10/10/3 9/9/3
f 15/15/4 16/16/4 14/14/4 13/13/4
f 19/19/5 20/20/5 18/18/5 17/17/5
f 14/23/6 5/24/6 6/22/6 13/21/6
f 1/25/6 2/26/6 5/24/6 14/23/6
f 3/27/4 1/28/4 14/14/4 16/16/4
f 23/29/2 24/30/2 22/7/2 21/5/2
f 25/31/5 26/32/5 17/17/5 18/18/5
f 9/33/6 10/34/6 13/21/6 6/22/6
f 29/37/2 30/38/2 28/36/2 27/35/2
f 10/39/4 12/40/4 15/15/4 13/13/4
f 31/41/5 32/42/5 20/20/5 19/19/5
f 33/45/8 34/46/9 6/44/8 8/43/7
f 35/47/5 36/48/5 20/20/5 32/42/5
f 34/49/6 37/50/6 9/33/6 6/22/6
f 37/51/3 38/52/3 11/11/3 9/9/3
f 39/51/3 40/52/3 7/11/3 5/9/3
f 41/53/6 39/54/6 5/24/6 2/26/6
f 42/55/5 43/56/5 25/31/5 18/18/5
f 44/57/1 41/58/1 2/2/1 4/4/1
f 27/61/1 28/62/1 34/60/1 33/59/10
f 45/63/5 46/64/5 36/48/5 35/47/5
f 28/65/6 30/66/6 37/50/6 34/49/6
f 30/67/3 29/68/3 38/52/3 37/51/3
f 28/71/3 27/72/11 33/70/3 34/69/3
f 23/73/6 21/74/6 39/54/6 41/53/6
f 47/75/5 48/76/5 43/56/5 42/55/5
f 24/77/1 23/78/1 41/58/1 44/57/1
f 34/79/12 33/80/13 40/16/12 39/14/4
f 28/65/6 34/49/6 39/54/6 21/74/6
f 36/48/5 46/64/5 47/75/5 42/55/5
f 27/35/2 28/36/2 21/5/2 22/7/2
f 32/81/3 31/82/3 12/12/3 11/11/3
f 35/83/3 32/81/3 11/11/3 38/52/3
f 20/86/15 36/87/16 33/85/15 8/84/14
f 45/88/3 35/83/3 38/52/3 29/68/3
f 17/89/4 26/90/4 3/27/4 16/16/4
f 31/91/4 19/92/4 15/15/4 12/40/4
f 36/95/18 20/96/19 8/94/18 33/93/17
f 19/92/4 17/89/4 16/16/4 15/15/4
f 18/97/2 20/98/2 8/8/2 7/7/2
f 26/99/1 25/100/1 4/4/1 3/3/1
f 25/100/1 43/101/1 44/57/1 4/4/1
f 36/104/21 42/105/22 40/103/21 33/102/20
f 43/101/1 48/106/1 24/77/1 44/57/1
f 48/107/2 47/97/2 22/7/2 24/30/2
f 47/97/2 46/108/2 27/35/2 22/7/2
f 46/108/2 45/109/2 29/37/2 27/35/2
f 33/110/6 8/111/6 7/24/6 40/54/6
f 36/114/24 33/115/25 40/113/24 42/112/23
f 8/116/4 20/117/4 18/89/4 7/16/4
f 20/20/5 36/48/5 42/55/5 18/18/5

